<?xml version="1.0" encoding="UTF-8"?>
<svg id="svg1" xmlns="http://www.w3.org/2000/svg" xmlns:xlink="http://www.w3.org/1999/xlink" viewBox="0 0 443.72 353.89">
  <defs>
    <style>
      .cls-1 {
        fill: none;
      }

      .cls-1, .cls-2, .cls-3, .cls-4, .cls-5 {
        stroke-width: 0px;
      }

      .cls-2 {
        fill: #e6ec21;
      }

      .cls-3 {
        fill: #b72e2c;
      }

      .cls-6 {
        clip-path: url(#clippath-1);
      }

      .cls-7 {
        clip-path: url(#clippath-4);
      }

      .cls-8 {
        clip-path: url(#clippath-3);
      }

      .cls-9 {
        clip-path: url(#clippath-2);
      }

      .cls-10 {
        clip-path: url(#clippath-7);
      }

      .cls-11 {
        clip-path: url(#clippath-8);
      }

      .cls-12 {
        clip-path: url(#clippath-6);
      }

      .cls-13 {
        clip-path: url(#clippath-5);
      }

      .cls-14 {
        clip-path: url(#clippath-9);
      }

      .cls-15 {
        clip-path: url(#clippath-10);
      }

      .cls-4 {
        fill: #fff;
      }

      .cls-5 {
        fill: #231f20;
      }
    </style>
    <clipPath id="clippath-1">
      <rect class="cls-1" x="-137.51" y="-43.53" width="718.75" height="1016.51"/>
    </clipPath>
    <clipPath id="clippath-2">
      <rect class="cls-1" x="-137.51" y="-43.53" width="718.75" height="1016.51"/>
    </clipPath>
    <clipPath id="clippath-3">
      <rect class="cls-1" x="-137.51" y="-43.53" width="718.75" height="1016.51"/>
    </clipPath>
    <clipPath id="clippath-4">
      <rect class="cls-1" x="-137.51" y="-43.53" width="718.75" height="1016.51"/>
    </clipPath>
    <clipPath id="clippath-5">
      <rect class="cls-1" x="-137.51" y="-43.53" width="718.75" height="1016.51"/>
    </clipPath>
    <clipPath id="clippath-6">
      <rect class="cls-1" x="-137.51" y="-43.53" width="718.75" height="1016.51"/>
    </clipPath>
    <clipPath id="clippath-7">
      <rect class="cls-1" x="-137.51" y="-43.53" width="718.75" height="1016.51"/>
    </clipPath>
    <clipPath id="clippath-8">
      <rect class="cls-1" x="-137.51" y="-43.53" width="718.75" height="1016.51"/>
    </clipPath>
    <clipPath id="clippath-9">
      <rect class="cls-1" x="-137.51" y="-43.53" width="718.75" height="1016.51"/>
    </clipPath>
    <clipPath id="clippath-10">
      <rect class="cls-1" x="-137.51" y="-43.53" width="718.75" height="1016.51"/>
    </clipPath>
  </defs>
  <g id="layer-MC0">
    <g id="_2_BALLS" data-name="2 BALLS">
      <g class="cls-6">
        <g>
          <path class="cls-3" d="M209.99,122.86c12.2-27.33,24.72-54.61,36.51-79.07,5.62-11.66-31.51-20.95-33.81-10.26-5.48,25.51-14.04,57.73-23.5,90.79,5.05-1.07,10.28-1.65,15.65-1.65,1.73,0,3.45.08,5.15.2Z"/>
          <path class="cls-3" d="M295.37,49.97c7.56-10.5-27.4-26.1-31.51-15.98-10.4,25.58-25.5,57.95-41.55,90.74,5.96,1.42,11.64,3.55,16.96,6.29,18.8-27.96,38.21-56.19,56.11-81.05Z"/>
          <path class="cls-3" d="M264.78,152.5c26.22-27.37,53.73-55.5,78.58-79.71,9.27-9.03-22.45-30.46-28.26-21.21-15.81,25.19-38.37,57.18-61.65,88.95,4.2,3.57,8,7.58,11.33,11.97Z"/>
          <path class="cls-3" d="M377.4,113.48c10.7-7.28-16.82-33.9-24.15-25.79-20.73,22.93-49.91,51.83-79.53,80.11,2.22,5.08,3.88,10.46,4.93,16.05,32.8-24.12,67.7-49.23,98.74-70.37Z"/>
          <path class="cls-3" d="M372.49,136.67c-24.5,19.06-58.43,42.57-92.65,65.36-.38,6.76-1.64,13.28-3.69,19.45,38.26-19,79.46-38.92,115.64-55.22,11.8-5.32-10.68-36.3-19.3-29.59Z"/>
        </g>
      </g>
    </g>
    <path id="path16" class="cls-5" d="M54.65,153.36l-25.51-69.37h10.2l16.84,47.02,18.56-47.02h6.25l18.37,47.12,17.13-47.12h9.99l-25.95,69.37h-2.21l-20.59-53.03-20.79,53.03h-2.31Z"/>
    <path id="path17" class="cls-3" d="M263.95,255.91h2.52l2.08,11.69c.06.33.13.71.18,1.15.06.42.13.94.2,1.54.05-.52.1-.99.16-1.41.06-.42.11-.77.17-1.03l2.08-11.93h1.97l2.04,11.66c.09.5.17.98.24,1.44.06.45.12.88.16,1.27.05-.57.1-1.08.16-1.54.06-.47.14-.91.23-1.3l2.08-11.53h2.52l-4.05,19.79h-2.04l-1.91-10.97c-.05-.25-.1-.6-.16-1.05-.06-.44-.13-1.08-.21-1.9-.08.7-.14,1.28-.2,1.74-.06.45-.12.85-.18,1.19l-1.94,10.98h-2.04l-4.05-19.79ZM284.54,269.04h2.83l-1.03-6.38c-.08-.45-.15-.93-.21-1.43-.06-.5-.11-1.02-.17-1.57-.07.64-.13,1.2-.2,1.68-.06.48-.12.93-.18,1.33l-1.03,6.37ZM280.94,275.7l3.68-19.79h2.66l3.71,19.79h-2.49l-.72-4.37h-3.62l-.75,4.37h-2.46ZM293.25,275.7v-19.79h2.46v17.42h4.87v2.38h-7.33ZM302.58,275.7v-19.79h2.41v9.65l2.79-9.65h2.69l-3.41,9.73,4.08,10.06h-2.72l-3.42-9.71v9.71h-2.41ZM313.24,275.7v-19.79h2.43v19.79h-2.43ZM319.62,255.91h2.09l3.41,9.68c.19.51.47,1.36.85,2.55.15.46.26.81.34,1.05-.05-.73-.08-1.47-.11-2.24-.02-.76-.03-1.58-.03-2.46v-8.57h2.29v19.79h-2.12l-3.38-9.56c-.12-.34-.33-.93-.61-1.77-.28-.84-.47-1.43-.58-1.78.05.72.08,1.46.1,2.22.03.76.04,1.57.04,2.43v8.46h-2.29v-19.79ZM341.32,274.89c-.55.4-1.1.7-1.64.89-.54.2-1.09.3-1.66.3-2.08,0-3.7-.89-4.88-2.69-1.17-1.79-1.75-4.29-1.75-7.49s.55-5.86,1.66-7.65c1.11-1.79,2.68-2.69,4.71-2.69.65,0,1.27.11,1.85.34.58.23,1.15.58,1.71,1.05v2.82c-.59-.64-1.18-1.12-1.75-1.43-.58-.31-1.17-.47-1.78-.47-1.25,0-2.2.69-2.86,2.07-.66,1.38-.99,3.38-.99,6s.33,4.45.99,5.8c.66,1.35,1.6,2.02,2.83,2.02.15,0,.33-.02.52-.06.21-.04.42-.09.64-.16v-6.25h-1.8v-2.29h4.2v9.89ZM350.02,275.7v-19.79h6.06v2.35h-3.62v5.94h3.28v2.35h-3.28v9.15h-2.43ZM358.94,275.7v-19.79h7.05v2.32h-4.64v5.94h4.29v2.32h-4.29v6.86h4.87v2.35h-7.27ZM368.59,275.29v-2.72c.4.38.79.66,1.16.83.37.18.75.27,1.13.27.58,0,1.05-.19,1.4-.58.36-.4.54-.92.54-1.57,0-.77-.5-2.13-1.5-4.08-.25-.49-.45-.87-.59-1.15-.91-1.83-1.51-3.19-1.8-4.08-.28-.88-.42-1.68-.42-2.38,0-1.26.37-2.29,1.13-3.08.76-.8,1.73-1.2,2.91-1.2.36,0,.71.05,1.06.16.36.1.72.25,1.09.45v2.41c-.33-.25-.65-.44-.96-.57-.3-.13-.6-.2-.89-.2-.58,0-1.03.18-1.37.52-.34.35-.51.82-.51,1.4,0,.42.08.92.25,1.47.18.56.47,1.25.88,2.08.22.47.54,1.14.98,2,1.43,2.87,2.15,4.95,2.15,6.24s-.4,2.37-1.2,3.23c-.8.85-1.8,1.27-3,1.27-.4,0-.8-.06-1.2-.18-.41-.12-.82-.3-1.23-.55ZM380.16,275.7v-17.45h-3.16v-2.35h8.74v2.35h-3.16v17.45h-2.43Z"/>
    <path id="path18" class="cls-5" d="M78.71,228.81v-13c3.12,3.58,6.1,6.15,8.94,7.73,2.84,1.58,5.86,2.36,9.08,2.36,3.41,0,6.11-.79,8.08-2.38,1.97-1.59,2.96-3.75,2.96-6.48,0-2.24-.67-4.2-2-5.89-1.33-1.69-4.51-4.12-9.54-7.32-7.78-5.02-12.66-8.9-14.64-11.66-1.99-2.76-2.99-6.05-2.99-9.85,0-5.36,1.9-9.75,5.69-13.17,3.79-3.43,8.68-5.15,14.66-5.15,2.66,0,5.28.39,7.85,1.16,2.58.77,5.17,1.96,7.8,3.57v11.18c-3.02-2.42-5.81-4.19-8.38-5.29-2.56-1.1-5.11-1.66-7.67-1.66-3.08,0-5.6.76-7.56,2.29s-2.93,3.49-2.93,5.89c0,3.42,4.05,7.65,12.15,12.71.66.4,1.15.69,1.49.89,6.59,4.1,10.91,7.72,12.95,10.85,2.04,3.13,3.06,7.01,3.06,11.64,0,5.26-1.91,9.6-5.72,13.03-3.81,3.42-8.69,5.14-14.63,5.14-3.71,0-7.06-.53-10.05-1.57-2.98-1.05-5.85-2.73-8.62-5.02ZM131.14,203.84v21.38h13.1c4.79,0,8.3-.84,10.51-2.53,2.21-1.7,3.33-4.35,3.33-7.97s-1.24-6.48-3.72-8.23c-2.48-1.76-6.38-2.65-11.7-2.65h-11.52ZM121.39,234.18v-68.88h20.13c6.87,0,12.16,1.56,15.89,4.68,3.72,3.11,5.59,7.54,5.59,13.29,0,3.55-.84,6.51-2.52,8.87-1.67,2.36-4.23,4.17-7.68,5.45,5.03,1.19,8.91,3.35,11.64,6.47,2.74,3.11,4.12,6.9,4.12,11.36,0,5.72-2.09,10.27-6.28,13.67s-9.86,5.09-17.01,5.09h-23.88ZM131.14,194.83h6.65c5.02,0,8.74-.9,11.16-2.7,2.43-1.8,3.65-4.56,3.65-8.28,0-3.37-.96-5.83-2.89-7.37-1.92-1.55-4.97-2.32-9.17-2.32h-9.41v20.67ZM172.42,234.18v-68.88h8.57l45.35,53.47v-53.47h9.79v68.88h-8.76l-45.21-53.53v53.53h-9.75ZM135.81,152.9v-68.88h39.19v8.76h-29.44v20.39h28.55v8.86h-28.55v30.87h-9.75Z"/>
    <path id="path19" class="cls-5" d="M36.91,275.7v-19.79h6.06v2.35h-3.62v5.94h3.28v2.35h-3.28v9.15h-2.43ZM45.84,275.7v-19.79h7.05v2.32h-4.64v5.94h4.29v2.32h-4.29v6.86h4.87v2.35h-7.27ZM55.49,275.29v-2.72c.4.38.79.66,1.16.83.37.18.75.27,1.13.27.58,0,1.05-.19,1.4-.58.36-.4.54-.92.54-1.57,0-.77-.5-2.13-1.5-4.08-.25-.49-.45-.87-.59-1.15-.91-1.83-1.51-3.19-1.8-4.08-.28-.88-.42-1.68-.42-2.38,0-1.26.37-2.29,1.13-3.08.76-.8,1.73-1.2,2.91-1.2.36,0,.71.05,1.06.16.36.1.72.25,1.09.45v2.41c-.33-.25-.65-.44-.96-.57-.3-.13-.6-.2-.89-.2-.58,0-1.03.18-1.37.52-.34.35-.51.82-.51,1.4,0,.42.08.92.25,1.47.18.56.47,1.25.88,2.08.22.47.54,1.14.98,2,1.43,2.87,2.15,4.95,2.15,6.24s-.4,2.37-1.2,3.23c-.8.85-1.8,1.27-3,1.27-.4,0-.8-.06-1.2-.18-.41-.12-.82-.3-1.23-.55ZM67.05,275.7v-17.45h-3.16v-2.35h8.74v2.35h-3.16v17.45h-2.43ZM75.07,275.7v-19.79h2.43v19.79h-2.43ZM83.75,275.7l-3.76-19.79h2.55l1.77,10.81c.09.63.17,1.19.23,1.67.06.47.11.92.14,1.34.06-.61.13-1.18.18-1.7.06-.52.13-.96.2-1.32l1.77-10.81h2.55l-3.76,19.79h-1.85ZM93.22,269.04h2.83l-1.03-6.38c-.08-.45-.15-.93-.21-1.43-.06-.5-.11-1.02-.17-1.57-.07.64-.13,1.2-.2,1.68-.06.48-.12.93-.18,1.33l-1.03,6.37ZM89.62,275.7l3.68-19.79h2.66l3.71,19.79h-2.49l-.72-4.37h-3.62l-.75,4.37h-2.46ZM101.93,275.7v-19.79h2.46v17.42h4.87v2.38h-7.33ZM118.97,273.35h.44c1.41,0,2.45-.61,3.11-1.83.67-1.22,1-3.12,1-5.7s-.33-4.58-.99-5.79c-.66-1.21-1.7-1.81-3.13-1.81h-.44v15.13ZM116.53,275.7v-19.79h2.84c2.24,0,3.92.82,5.02,2.46,1.11,1.64,1.67,4.12,1.67,7.43s-.56,5.79-1.67,7.44c-1.11,1.64-2.79,2.46-5.02,2.46h-2.84ZM129.11,275.7v-19.79h7.05v2.32h-4.64v5.94h4.29v2.32h-4.29v6.86h4.87v2.35h-7.27ZM152.06,274.84c-.39.4-.81.69-1.26.86-.45.19-.96.28-1.53.28-1.72,0-3.02-.84-3.91-2.52-.89-1.69-1.33-4.18-1.33-7.47,0-3.51.42-6.12,1.26-7.84.85-1.73,2.14-2.59,3.86-2.59.52,0,1.01.08,1.49.23.47.15.94.38,1.41.69v2.55c-.45-.4-.87-.69-1.29-.89-.41-.2-.81-.3-1.2-.3-1.09,0-1.85.56-2.29,1.68-.45,1.12-.67,3.13-.67,6.03s.22,4.98.65,6.23c.43,1.25,1.15,1.87,2.14,1.87.43,0,.87-.11,1.3-.34.43-.23.88-.6,1.36-1.09v2.62ZM156.94,269.04h2.83l-1.03-6.38c-.08-.45-.15-.93-.21-1.43-.06-.5-.11-1.02-.17-1.57-.07.64-.13,1.2-.2,1.68-.06.48-.12.93-.18,1.33l-1.03,6.37ZM153.34,275.7l3.68-19.79h2.66l3.71,19.79h-2.49l-.72-4.37h-3.62l-.75,4.37h-2.46ZM165.59,275.7v-19.79h2.29l2.21,5.63c.06.18.16.45.27.79.12.35.26.78.42,1.29.12-.42.24-.81.35-1.15.12-.35.24-.67.37-.98l2.21-5.59h2.28v19.79h-2.28v-11.59c0-.49,0-1,.03-1.54.03-.54.06-1.1.11-1.67l-3.07,7.44-3.07-7.46c.06.7.1,1.32.13,1.85.03.54.04,1,.04,1.37v11.59h-2.29ZM179.88,275.7v-19.79h2.43v19.79h-2.43ZM186.26,255.91h2.09l3.41,9.68c.19.51.47,1.36.85,2.55.15.46.26.81.34,1.05-.05-.73-.08-1.47-.11-2.24-.02-.76-.03-1.58-.03-2.46v-8.57h2.29v19.79h-2.12l-3.38-9.56c-.12-.34-.33-.93-.61-1.77-.28-.84-.47-1.43-.58-1.78.05.72.08,1.46.1,2.22.03.76.04,1.57.04,2.43v8.46h-2.29v-19.79ZM198.83,275.7v-19.79h2.43v8.7h4v-8.7h2.43v19.79h-2.43v-8.82h-4v8.82h-2.43ZM213.5,269.04h2.83l-1.03-6.38c-.08-.45-.15-.93-.21-1.43-.06-.5-.11-1.02-.17-1.57-.07.64-.13,1.2-.2,1.68-.06.48-.12.93-.18,1.33l-1.03,6.37ZM209.91,275.7l3.68-19.79h2.66l3.71,19.79h-2.49l-.72-4.37h-3.62l-.75,4.37h-2.46ZM224.51,273.35h.44c1.41,0,2.45-.61,3.11-1.83.67-1.22,1-3.12,1-5.7s-.33-4.58-.99-5.79c-.66-1.21-1.7-1.81-3.13-1.81h-.44v15.13ZM222.07,275.7v-19.79h2.84c2.24,0,3.92.82,5.02,2.46,1.11,1.64,1.67,4.12,1.67,7.43s-.56,5.79-1.67,7.44c-1.11,1.64-2.79,2.46-5.02,2.46h-2.84ZM236.71,269.04h2.83l-1.03-6.38c-.08-.45-.15-.93-.21-1.43-.06-.5-.11-1.02-.17-1.57-.07.64-.13,1.2-.2,1.68-.06.48-.12.93-.18,1.33l-1.03,6.37ZM233.12,275.7l3.68-19.79h2.66l3.71,19.79h-2.49l-.72-4.37h-3.62l-.75,4.37h-2.46ZM244.62,275.29v-2.72c.4.38.79.66,1.16.83.37.18.75.27,1.13.27.58,0,1.05-.19,1.4-.58.36-.4.54-.92.54-1.57,0-.77-.5-2.13-1.5-4.08-.25-.49-.45-.87-.59-1.15-.91-1.83-1.51-3.19-1.8-4.08-.28-.88-.42-1.68-.42-2.38,0-1.26.37-2.29,1.13-3.08.76-.8,1.73-1.2,2.91-1.2.36,0,.71.05,1.06.16.36.1.72.25,1.09.45v2.41c-.33-.25-.65-.44-.96-.57-.3-.13-.6-.2-.89-.2-.58,0-1.03.18-1.37.52-.34.35-.51.82-.51,1.4,0,.42.08.92.25,1.47.18.56.47,1.25.88,2.08.22.47.54,1.14.98,2,1.43,2.87,2.15,4.95,2.15,6.24s-.4,2.37-1.2,3.23c-.8.85-1.8,1.27-3,1.27-.4,0-.8-.06-1.2-.18-.41-.12-.82-.3-1.23-.55Z"/>
    <path id="path20" class="cls-5" d="M79.87,326.86v-3.31c.5.46.98.8,1.43,1.02.45.22.91.33,1.36.33.71,0,1.29-.23,1.71-.71.43-.48.65-1.12.65-1.91,0-.94-.61-2.59-1.83-4.95-.31-.6-.55-1.07-.72-1.4-1.1-2.22-1.83-3.88-2.18-4.95-.35-1.08-.52-2.05-.52-2.9,0-1.54.46-2.79,1.39-3.76.92-.97,2.1-1.46,3.54-1.46.43,0,.87.06,1.3.18.43.12.87.31,1.32.57v2.93c-.41-.31-.8-.54-1.17-.69-.37-.16-.73-.24-1.08-.24-.71,0-1.27.21-1.68.64-.41.42-.61.99-.61,1.7,0,.52.1,1.12.31,1.8.22.68.57,1.52,1.06,2.53.26.58.66,1.38,1.19,2.42,1.74,3.49,2.62,6.02,2.62,7.6s-.49,2.88-1.47,3.92c-.97,1.04-2.19,1.56-3.64,1.56-.48,0-.97-.08-1.47-.23-.49-.15-.99-.37-1.5-.67ZM94.41,319.25h3.45l-1.26-7.77c-.1-.54-.18-1.12-.25-1.73-.08-.61-.15-1.25-.21-1.92-.08.79-.15,1.47-.23,2.05-.08.59-.16,1.12-.24,1.61l-1.26,7.75ZM90.03,327.36l4.49-24.08h3.24l4.5,24.08h-3.03l-.88-5.32h-4.4l-.92,5.32h-3ZM104.95,303.27h2.55l4.15,11.77c.23.62.58,1.66,1.03,3.1.19.57.33.99.41,1.27-.06-.88-.1-1.79-.13-2.72-.03-.93-.04-1.93-.04-3v-10.43h2.79v24.08h-2.58l-4.12-11.64c-.15-.4-.4-1.12-.74-2.14-.34-1.03-.58-1.75-.71-2.18.06.88.1,1.78.13,2.7.03.92.04,1.9.04,2.96v10.3h-2.79v-24.08ZM122.34,327.36v-21.22h-3.85v-2.86h10.64v2.86h-3.83v21.22h-2.96ZM133.49,319.25h3.45l-1.26-7.77c-.1-.54-.18-1.12-.25-1.73-.08-.61-.15-1.25-.21-1.92-.08.79-.15,1.47-.23,2.05-.08.59-.16,1.12-.24,1.61l-1.26,7.75ZM129.11,327.36l4.49-24.08h3.24l4.5,24.08h-3.03l-.88-5.32h-4.4l-.92,5.32h-3ZM153.44,313.29h.47c1.17,0,2.04-.31,2.63-.95.58-.64.88-1.59.88-2.86,0-1.13-.29-1.98-.88-2.56-.59-.57-1.45-.86-2.59-.86h-.51v7.23ZM153.44,324.53h.51c1.31,0,2.29-.35,2.93-1.05.65-.71.98-1.79.98-3.25s-.34-2.43-1-3.11c-.66-.69-1.67-1.03-3.01-1.03h-.4v8.45ZM150.55,327.36v-24.08h2.96c2.21,0,3.91.52,5.09,1.57,1.2,1.05,1.8,2.53,1.8,4.46,0,1.11-.25,2.08-.74,2.9-.49.82-1.25,1.55-2.28,2.18,1.22.54,2.12,1.28,2.67,2.22.57.94.85,2.18.85,3.69,0,2.12-.59,3.83-1.77,5.12-1.18,1.29-2.73,1.94-4.66,1.94h-3.93ZM167.48,319.25h3.45l-1.26-7.77c-.1-.54-.18-1.12-.25-1.73-.08-.61-.15-1.25-.21-1.92-.08.79-.15,1.47-.23,2.05-.08.59-.16,1.12-.24,1.61l-1.26,7.75ZM163.11,327.36l4.49-24.08h3.24l4.5,24.08h-3.03l-.88-5.32h-4.4l-.92,5.32h-3ZM167.23,300.94l2.83-4.78h2.74l-3.91,4.78h-1.67ZM180.95,313.53h.27c.84,0,1.48-.29,1.92-.88.44-.59.67-1.46.67-2.59,0-1.3-.24-2.29-.71-2.97-.46-.69-1.14-1.03-2.02-1.03h-.13v7.47ZM178.02,327.36v-24.08h2.86c1.82,0,3.27.58,4.34,1.74,1.08,1.15,1.61,2.71,1.61,4.68,0,1.22-.23,2.25-.69,3.08-.46.84-1.17,1.52-2.14,2.05.74.39,1.34,1.03,1.83,1.91.48.89.96,2.29,1.43,4.19l1.51,6.42h-3.03l-1.34-5.74c-.45-1.9-.91-3.26-1.39-4.1-.47-.84-1.02-1.26-1.64-1.26-.06,0-.11,0-.17.01-.05,0-.13.02-.25.06v11.04h-2.93ZM194.31,313.29h.47c1.17,0,2.04-.31,2.63-.95.58-.64.88-1.59.88-2.86,0-1.13-.29-1.98-.88-2.56-.59-.57-1.45-.86-2.59-.86h-.51v7.23ZM194.31,324.53h.51c1.31,0,2.29-.35,2.93-1.05.65-.71.98-1.79.98-3.25s-.34-2.43-1-3.11c-.66-.69-1.67-1.03-3.01-1.03h-.4v8.45ZM191.43,327.36v-24.08h2.96c2.21,0,3.91.52,5.09,1.57,1.2,1.05,1.8,2.53,1.8,4.46,0,1.11-.25,2.08-.74,2.9-.49.82-1.25,1.55-2.28,2.18,1.22.54,2.12,1.28,2.67,2.22.57.94.85,2.18.85,3.69,0,2.12-.59,3.83-1.77,5.12-1.18,1.29-2.73,1.94-4.66,1.94h-3.93ZM208.35,319.25h3.45l-1.26-7.77c-.1-.54-.18-1.12-.25-1.73-.08-.61-.15-1.25-.21-1.92-.08.79-.15,1.47-.23,2.05-.08.59-.16,1.12-.24,1.61l-1.26,7.75ZM203.98,327.36l4.49-24.08h3.24l4.5,24.08h-3.03l-.88-5.32h-4.4l-.92,5.32h-3ZM221.83,313.53h.27c.84,0,1.48-.29,1.92-.88.44-.59.67-1.46.67-2.59,0-1.3-.24-2.29-.71-2.97-.46-.69-1.14-1.03-2.02-1.03h-.13v7.47ZM218.9,327.36v-24.08h2.86c1.82,0,3.27.58,4.34,1.74,1.08,1.15,1.61,2.71,1.61,4.68,0,1.22-.23,2.25-.69,3.08-.46.84-1.17,1.52-2.14,2.05.74.39,1.34,1.03,1.83,1.91.48.89.96,2.29,1.43,4.19l1.51,6.42h-3.03l-1.34-5.74c-.45-1.9-.91-3.26-1.39-4.1-.47-.84-1.02-1.26-1.64-1.26-.06,0-.11,0-.17.01-.05,0-.13.02-.25.06v11.04h-2.93ZM234.8,319.25h3.45l-1.26-7.77c-.1-.54-.18-1.12-.25-1.73-.08-.61-.15-1.25-.21-1.92-.08.79-.15,1.47-.23,2.05-.08.59-.16,1.12-.24,1.61l-1.26,7.75ZM230.43,327.36l4.49-24.08h3.24l4.5,24.08h-3.03l-.88-5.32h-4.4l-.92,5.32h-3ZM254.73,324.5h.54c1.72,0,2.98-.74,3.79-2.22.81-1.48,1.22-3.79,1.22-6.93s-.41-5.57-1.22-7.05c-.8-1.47-2.07-2.21-3.79-2.21h-.54v18.41ZM251.77,327.36v-24.08h3.45c2.73,0,4.78,1,6.13,3,1.35,1.99,2.02,5,2.02,9.03s-.68,7.05-2.04,9.06c-1.36,2-3.4,3-6.11,3h-3.45ZM267.07,327.36v-24.08h8.57v2.82h-5.65v7.23h5.21v2.83h-5.21v8.35h5.91v2.86h-8.84ZM286.25,303.27h2.55l4.15,11.77c.23.62.58,1.66,1.03,3.1.19.57.33.99.41,1.27-.06-.88-.1-1.79-.13-2.72-.03-.93-.04-1.93-.04-3v-10.43h2.79v24.08h-2.58l-4.12-11.64c-.15-.4-.4-1.12-.74-2.14-.34-1.03-.58-1.75-.71-2.18.06.88.1,1.78.13,2.7.03.92.04,1.9.04,2.96v10.3h-2.79v-24.08ZM301.59,327.36v-24.08h8.57v2.82h-5.65v7.23h5.21v2.83h-5.21v8.35h5.91v2.86h-8.84ZM312.39,327.36l4.41-12.76-3.96-11.32h3.07l2.58,8.43,2.53-8.43h3.11l-3.92,11.32,4.4,12.76h-3.17l-2.96-9.24-2.93,9.24h-3.17ZM327.3,327.36v-24.08h8.57v2.82h-5.65v7.23h5.21v2.83h-5.21v8.35h5.91v2.86h-8.84Z"/>
    <g class="cls-9">
      <path id="path21" class="cls-2" d="M398.87,197.27c.37,6.6-4.68,12.26-11.28,12.64-6.6.37-12.26-4.68-12.64-11.28-.37-6.6,4.68-12.26,11.28-12.64,6.61-.37,12.26,4.68,12.64,11.28"/>
    </g>
    <g class="cls-8">
      <path id="path23" class="cls-2" d="M362.93,211.06c.32,5.66-4.01,10.51-9.67,10.83-5.66.32-10.51-4.01-10.83-9.67-.32-5.66,4.01-10.51,9.67-10.83,5.66-.32,10.51,4.01,10.83,9.67"/>
    </g>
    <g class="cls-7">
      <path id="path25" class="cls-2" d="M349.05,233.66c.21,3.77-2.67,7.01-6.45,7.22-3.77.21-7.01-2.67-7.22-6.45-.21-3.77,2.67-7.01,6.45-7.22,3.77-.21,7.01,2.67,7.22,6.45"/>
    </g>
    <g class="cls-13">
      <path id="path27" class="cls-2" d="M215.79,288.72c.21,3.77-2.67,7.01-6.45,7.22-3.77.21-7.01-2.67-7.22-6.45-.21-3.77,2.67-7.01,6.45-7.22,3.77-.21,7.01,2.67,7.22,6.45"/>
    </g>
    <g class="cls-12">
      <path id="path29" class="cls-4" d="M212.8,290.49c-.76,2.12-3.1,3.22-5.23,2.46-2.12-.76-3.22-3.11-2.46-5.23.76-2.12,3.1-3.22,5.23-2.46,2.12.76,3.22,3.1,2.46,5.23"/>
    </g>
    <g class="cls-10">
      <path id="path31" class="cls-2" d="M386.29,226.35c.27,4.72-3.34,8.76-8.06,9.03-4.72.27-8.76-3.34-9.03-8.06-.27-4.72,3.34-8.76,8.06-9.03,4.72-.27,8.76,3.34,9.03,8.06"/>
    </g>
    <g class="cls-11">
      <path id="path33" class="cls-2" d="M328.96,224.03c.27,4.72-3.34,8.76-8.06,9.03-4.72.27-8.76-3.34-9.03-8.06-.27-4.72,3.34-8.76,8.06-9.03,4.72-.27,8.76,3.34,9.03,8.06"/>
    </g>
    <g class="cls-14">
      <path id="path35" class="cls-5" d="M37.37,288.08h154.03v2.05H37.37v-2.05Z"/>
    </g>
    <g class="cls-15">
      <path id="path37" class="cls-5" d="M226.93,288.08h159.37v2.05h-159.37v-2.05Z"/>
    </g>
  </g>
</svg>